# xmcd
#
# Track frame offsets:
#	180
#	14533
#	27430
#	39751
#	52125
#	65019
#	81526
#	93939
#	108040
#	119709
#
# Disc length: 1829 seconds
#
# Revision: 1
# Processed by: cddbd v1.4PL0 Copyright (c) Steve Scherf et al.
# Submitted via: EasyCDDAExtractor 5.0.7
#
DISCID=8507230a
DTITLE=Merle Haggard - Workin' Man
DYEAR=1999
DGENRE=Country
TTITLE0=Branded Man
TTITLE1=Sing Me Back Home
TTITLE2=Workin' Man Blues
TTITLE3=Okie from Muskogee
TTITLE4=The Fightin' Side of Me
TTITLE5=Daddy Frank (The Guitar Man)
TTITLE6=If We Make it Through December
TTITLE7=Always Wanting You
TTITLE8=Carolyn
TTITLE9=I Think I'll Just Stay Here and Drink
EXTD=
EXTT0=
EXTT1=
EXTT2=
EXTT3=
EXTT4=
EXTT5=
EXTT6=
EXTT7=
EXTT8=
EXTT9=
PLAYORDER=
